<svg xmlns="http://www.w3.org/2000/svg" viewBox="565.5 986 500 444.426"><defs><style>.a{fill:#b3b3b3;}</style></defs><g transform="translate(565.475 985.959)"><rect class="a" width="5.577" height="5.577" transform="matrix(0.182, -0.983, 0.983, 0.182, 263.036, 250.993)"/><rect class="a" width="5.577" height="5.577" transform="matrix(0.182, -0.983, 0.983, 0.182, 254.275, 249.32)"/><rect class="a" width="5.577" height="5.577" transform="matrix(0.182, -0.983, 0.983, 0.182, 252.589, 258.16)"/><rect class="a" width="5.577" height="5.577" transform="matrix(0.182, -0.983, 0.983, 0.182, 243.828, 256.488)"/><rect class="a" width="5.577" height="5.577" transform="matrix(0.182, -0.983, 0.983, 0.182, 259.771, 268.529)"/><rect class="a" width="5.577" height="5.577" transform="matrix(0.182, -0.983, 0.983, 0.182, 250.995, 266.936)"/><rect class="a" width="5.577" height="5.577" transform="matrix(0.182, -0.983, 0.983, 0.182, 242.235, 265.263)"/><rect class="a" width="5.577" height="5.577" transform="matrix(0.182, -0.983, 0.983, 0.182, 258.178, 277.305)"/><rect class="a" width="5.577" height="5.577" transform="matrix(0.182, -0.983, 0.983, 0.182, 249.402, 275.711)"/><rect class="a" width="5.577" height="5.577" transform="matrix(0.182, -0.983, 0.983, 0.182, 240.641, 274.039)"/><rect class="a" width="5.577" height="5.577" transform="matrix(0.182, -0.983, 0.983, 0.182, 256.504, 286.066)"/><rect class="a" width="5.577" height="5.577" transform="matrix(0.182, -0.983, 0.983, 0.182, 247.729, 284.472)"/><rect class="a" width="5.577" height="5.577" transform="matrix(0.182, -0.983, 0.983, 0.182, 238.954, 282.879)"/><rect class="a" width="5.577" height="5.577" transform="matrix(0.182, -0.983, 0.983, 0.182, 230.193, 281.206)"/><rect class="a" width="5.577" height="5.577" transform="matrix(0.182, -0.983, 0.983, 0.182, 254.912, 294.841)"/><rect class="a" width="5.577" height="5.577" transform="matrix(0.182, -0.983, 0.983, 0.182, 246.136, 293.247)"/><rect class="a" width="5.577" height="5.577" transform="matrix(0.182, -0.983, 0.983, 0.182, 237.361, 291.655)"/><rect class="a" width="5.577" height="5.577" transform="matrix(0.182, -0.983, 0.983, 0.182, 228.6, 289.982)"/><rect class="a" width="5.577" height="5.577" transform="matrix(0.182, -0.983, 0.983, 0.182, 219.824, 288.388)"/><rect class="a" width="5.577" height="5.577" transform="matrix(0.182, -0.983, 0.983, 0.182, 268.546, 270.122)"/><rect class="a" width="5.577" height="5.577" transform="matrix(0.182, -0.983, 0.983, 0.182, 266.939, 278.977)"/><rect class="a" width="5.577" height="5.577" transform="matrix(0.182, -0.983, 0.983, 0.182, 265.345, 287.753)"/><rect class="a" width="5.577" height="5.577" transform="matrix(0.182, -0.983, 0.983, 0.182, 263.673, 296.514)"/><rect class="a" width="5.577" height="5.577" transform="matrix(0.182, -0.983, 0.983, 0.182, 278.98, 263.034)"/><rect class="a" width="5.577" height="5.577" transform="matrix(0.182, -0.983, 0.983, 0.182, 277.307, 271.795)"/><rect class="a" width="5.577" height="5.577" transform="matrix(0.182, -0.983, 0.983, 0.182, 275.713, 280.57)"/><rect class="a" width="5.577" height="5.577" transform="matrix(0.182, -0.983, 0.983, 0.182, 274.121, 289.346)"/><rect class="a" width="5.577" height="5.577" transform="matrix(0.182, -0.983, 0.983, 0.182, 272.448, 298.107)"/><rect class="a" width="5.577" height="5.577" transform="matrix(0.182, -0.983, 0.983, 0.182, 294.207, 229.54)"/><rect class="a" width="5.577" height="5.577" transform="matrix(0.182, -0.983, 0.983, 0.182, 292.614, 238.315)"/><rect class="a" width="5.577" height="5.577" transform="matrix(0.182, -0.983, 0.983, 0.182, 287.755, 264.627)"/><rect class="a" width="5.577" height="5.577" transform="matrix(0.182, -0.983, 0.983, 0.182, 286.162, 273.402)"/><rect class="a" width="5.577" height="5.577" transform="matrix(0.182, -0.983, 0.983, 0.182, 284.489, 282.163)"/><rect class="a" width="5.577" height="5.577" transform="matrix(0.182, -0.983, 0.983, 0.182, 282.896, 290.939)"/><rect class="a" width="5.577" height="5.577" transform="matrix(0.182, -0.983, 0.983, 0.182, 281.208, 299.779)"/><rect class="a" width="5.577" height="5.577" transform="matrix(0.182, -0.983, 0.983, 0.182, 299.796, 248.685)"/><rect class="a" width="5.577" height="5.577" transform="matrix(0.182, -0.983, 0.983, 0.182, 298.124, 257.445)"/><rect class="a" width="5.577" height="5.577" transform="matrix(0.182, -0.983, 0.983, 0.182, 296.531, 266.22)"/><rect class="a" width="5.577" height="5.577" transform="matrix(0.182, -0.983, 0.983, 0.182, 294.923, 275.076)"/><rect class="a" width="5.577" height="5.577" transform="matrix(0.182, -0.983, 0.983, 0.182, 293.25, 283.836)"/><rect class="a" width="5.577" height="5.577" transform="matrix(0.182, -0.983, 0.983, 0.182, 291.657, 292.612)"/><rect class="a" width="5.577" height="5.577" transform="matrix(0.182, -0.983, 0.983, 0.182, 290.064, 301.387)"/><rect class="a" width="5.577" height="5.577" transform="matrix(0.182, -0.983, 0.983, 0.182, 310.151, 241.581)"/><rect class="a" width="5.577" height="5.577" transform="matrix(0.182, -0.983, 0.983, 0.182, 308.557, 250.357)"/><rect class="a" width="5.577" height="5.577" transform="matrix(0.182, -0.983, 0.983, 0.182, 306.963, 259.133)"/><rect class="a" width="5.577" height="5.577" transform="matrix(0.182, -0.983, 0.983, 0.182, 305.292, 267.893)"/><rect class="a" width="5.577" height="5.577" transform="matrix(0.182, -0.983, 0.983, 0.182, 303.698, 276.669)"/><rect class="a" width="5.577" height="5.577" transform="matrix(0.182, -0.983, 0.983, 0.182, 302.025, 285.43)"/><rect class="a" width="5.577" height="5.577" transform="matrix(0.182, -0.983, 0.983, 0.182, 300.432, 294.205)"/><rect class="a" width="5.577" height="5.577" transform="matrix(0.182, -0.983, 0.983, 0.182, 298.839, 302.98)"/><rect class="a" width="5.577" height="5.577" transform="matrix(0.182, -0.983, 0.983, 0.182, 322.191, 225.638)"/><rect class="a" width="5.577" height="5.577" transform="matrix(0.182, -0.983, 0.983, 0.182, 320.598, 234.414)"/><rect class="a" width="5.577" height="5.577" transform="matrix(0.182, -0.983, 0.983, 0.182, 318.926, 243.174)"/><rect class="a" width="5.577" height="5.577" transform="matrix(0.182, -0.983, 0.983, 0.182, 317.332, 251.95)"/><rect class="a" width="5.577" height="5.577" transform="matrix(0.182, -0.983, 0.983, 0.182, 315.739, 260.726)"/><rect class="a" width="5.577" height="5.577" transform="matrix(0.182, -0.983, 0.983, 0.182, 314.067, 269.486)"/><rect class="a" width="5.577" height="5.577" transform="matrix(0.182, -0.983, 0.983, 0.182, 312.473, 278.262)"/><rect class="a" width="5.577" height="5.577" transform="matrix(0.182, -0.983, 0.983, 0.182, 310.881, 287.037)"/><rect class="a" width="5.577" height="5.577" transform="matrix(0.182, -0.983, 0.983, 0.182, 309.193, 295.877)"/><rect class="a" width="5.577" height="5.577" transform="matrix(0.182, -0.983, 0.983, 0.182, 307.6, 304.653)"/><rect class="a" width="5.577" height="5.577" transform="matrix(0.182, -0.983, 0.983, 0.182, 343.966, 156.993)"/><rect class="a" width="5.577" height="5.577" transform="matrix(0.182, -0.983, 0.983, 0.182, 342.372, 165.768)"/><rect class="a" width="5.577" height="5.577" transform="matrix(0.182, -0.983, 0.983, 0.182, 340.779, 174.544)"/><rect class="a" width="5.577" height="5.577" transform="matrix(0.182, -0.983, 0.983, 0.182, 339.092, 183.384)"/><rect class="a" width="5.577" height="5.577" transform="matrix(0.182, -0.983, 0.983, 0.182, 334.232, 209.696)"/><rect class="a" width="5.577" height="5.577" transform="matrix(0.182, -0.983, 0.983, 0.182, 332.64, 218.471)"/><rect class="a" width="5.577" height="5.577" transform="matrix(0.182, -0.983, 0.983, 0.182, 330.967, 227.232)"/><rect class="a" width="5.577" height="5.577" transform="matrix(0.182, -0.983, 0.983, 0.182, 329.374, 236.007)"/><rect class="a" width="5.577" height="5.577" transform="matrix(0.182, -0.983, 0.983, 0.182, 327.781, 244.783)"/><rect class="a" width="5.577" height="5.577" transform="matrix(0.182, -0.983, 0.983, 0.182, 326.108, 253.544)"/><rect class="a" width="5.577" height="5.577" transform="matrix(0.182, -0.983, 0.983, 0.182, 324.5, 262.399)"/><rect class="a" width="5.577" height="5.577" transform="matrix(0.182, -0.983, 0.983, 0.182, 322.828, 271.159)"/><rect class="a" width="5.577" height="5.577" transform="matrix(0.182, -0.983, 0.983, 0.182, 321.234, 279.935)"/><rect class="a" width="5.577" height="5.577" transform="matrix(0.182, -0.983, 0.983, 0.182, 319.642, 288.71)"/><rect class="a" width="5.577" height="5.577" transform="matrix(0.182, -0.983, 0.983, 0.182, 317.968, 297.471)"/><rect class="a" width="5.577" height="5.577" transform="matrix(0.182, -0.983, 0.983, 0.182, 316.376, 306.246)"/><rect class="a" width="5.577" height="5.577" transform="matrix(0.182, -0.983, 0.983, 0.182, 356.006, 141.049)"/><rect class="a" width="5.577" height="5.577" transform="matrix(0.182, -0.983, 0.983, 0.182, 354.414, 149.825)"/><rect class="a" width="5.577" height="5.577" transform="matrix(0.182, -0.983, 0.983, 0.182, 352.726, 158.665)"/><rect class="a" width="5.577" height="5.577" transform="matrix(0.182, -0.983, 0.983, 0.182, 351.133, 167.441)"/><rect class="a" width="5.577" height="5.577" transform="matrix(0.182, -0.983, 0.983, 0.182, 349.539, 176.216)"/><rect class="a" width="5.577" height="5.577" transform="matrix(0.182, -0.983, 0.983, 0.182, 347.867, 184.977)"/><rect class="a" width="5.577" height="5.577" transform="matrix(0.182, -0.983, 0.983, 0.182, 346.274, 193.752)"/><rect class="a" width="5.577" height="5.577" transform="matrix(0.182, -0.983, 0.983, 0.182, 344.681, 202.528)"/><rect class="a" width="5.577" height="5.577" transform="matrix(0.182, -0.983, 0.983, 0.182, 343.008, 211.289)"/><rect class="a" width="5.577" height="5.577" transform="matrix(0.182, -0.983, 0.983, 0.182, 341.415, 220.064)"/><rect class="a" width="5.577" height="5.577" transform="matrix(0.182, -0.983, 0.983, 0.182, 339.742, 228.824)"/><rect class="a" width="5.577" height="5.577" transform="matrix(0.182, -0.983, 0.983, 0.182, 338.135, 237.68)"/><rect class="a" width="5.577" height="5.577" transform="matrix(0.182, -0.983, 0.983, 0.182, 336.542, 246.455)"/><rect class="a" width="5.577" height="5.577" transform="matrix(0.182, -0.983, 0.983, 0.182, 334.869, 255.216)"/><rect class="a" width="5.577" height="5.577" transform="matrix(0.182, -0.983, 0.983, 0.182, 333.275, 263.991)"/><rect class="a" width="5.577" height="5.577" transform="matrix(0.182, -0.983, 0.983, 0.182, 331.604, 272.752)"/><rect class="a" width="5.577" height="5.577" transform="matrix(0.182, -0.983, 0.983, 0.182, 330.01, 281.527)"/><rect class="a" width="5.577" height="5.577" transform="matrix(0.182, -0.983, 0.983, 0.182, 328.417, 290.303)"/><rect class="a" width="5.577" height="5.577" transform="matrix(0.182, -0.983, 0.983, 0.182, 326.744, 299.064)"/><rect class="a" width="5.577" height="5.577" transform="matrix(0.182, -0.983, 0.983, 0.182, 325.151, 307.839)"/><rect class="a" width="5.577" height="5.577" transform="matrix(0.182, -0.983, 0.983, 0.182, 343.329, 111.472)"/><rect class="a" width="5.577" height="5.577" transform="matrix(0.182, -0.983, 0.983, 0.182, 355.371, 95.529)"/><rect class="a" width="5.577" height="5.577" transform="matrix(0.182, -0.983, 0.983, 0.182, 353.763, 104.384)"/><rect class="a" width="5.577" height="5.577" transform="matrix(0.182, -0.983, 0.983, 0.182, 350.497, 121.92)"/><rect class="a" width="5.577" height="5.577" transform="matrix(0.182, -0.983, 0.983, 0.182, 348.904, 130.696)"/><rect class="a" width="5.577" height="5.577" transform="matrix(0.182, -0.983, 0.983, 0.182, 369.005, 70.809)"/><rect class="a" width="5.577" height="5.577" transform="matrix(0.182, -0.983, 0.983, 0.182, 367.397, 79.664)"/><rect class="a" width="5.577" height="5.577" transform="matrix(0.182, -0.983, 0.983, 0.182, 365.804, 88.44)"/><rect class="a" width="5.577" height="5.577" transform="matrix(0.182, -0.983, 0.983, 0.182, 364.131, 97.201)"/><rect class="a" width="5.577" height="5.577" transform="matrix(0.182, -0.983, 0.983, 0.182, 362.538, 105.976)"/><rect class="a" width="5.577" height="5.577" transform="matrix(0.182, -0.983, 0.983, 0.182, 360.865, 114.737)"/><rect class="a" width="5.577" height="5.577" transform="matrix(0.182, -0.983, 0.983, 0.182, 359.272, 123.512)"/><rect class="a" width="5.577" height="5.577" transform="matrix(0.182, -0.983, 0.983, 0.182, 357.679, 132.288)"/><rect class="a" width="5.577" height="5.577" transform="matrix(0.182, -0.983, 0.983, 0.182, 48.491, 429.181)"/><rect class="a" width="5.577" height="5.577" transform="matrix(0.182, -0.983, 0.983, 0.182, 46.818, 437.942)"/><rect class="a" width="5.577" height="5.577" transform="matrix(0.182, -0.983, 0.983, 0.182, 38.043, 436.348)"/><rect class="a" width="5.577" height="5.577" transform="matrix(0.182, -0.983, 0.983, 0.182, 29.282, 434.676)"/><rect class="a" width="5.577" height="5.577" transform="matrix(0.182, -0.983, 0.983, 0.182, 27.689, 443.451)"/><rect class="a" width="5.577" height="5.577" transform="matrix(0.182, -0.983, 0.983, 0.182, 37.728, 291.011)"/><rect class="a" width="5.577" height="5.577" transform="matrix(0.182, -0.983, 0.983, 0.182, 36.055, 299.771)"/><rect class="a" width="5.577" height="5.577" transform="matrix(0.182, -0.983, 0.983, 0.182, 87.165, 318.279)"/><rect class="a" width="5.577" height="5.577" transform="matrix(0.182, -0.983, 0.983, 0.182, 78.389, 316.686)"/><rect class="a" width="5.577" height="5.577" transform="matrix(0.182, -0.983, 0.983, 0.182, 25.701, 306.874)"/><rect class="a" width="5.577" height="5.577" transform="matrix(0.182, -0.983, 0.983, 0.182, 85.492, 327.04)"/><rect class="a" width="5.577" height="5.577" transform="matrix(0.182, -0.983, 0.983, 0.182, 76.717, 325.447)"/><rect class="a" width="5.577" height="5.577" transform="matrix(0.182, -0.983, 0.983, 0.182, 67.941, 323.854)"/><rect class="a" width="5.577" height="5.577" transform="matrix(0.182, -0.983, 0.983, 0.182, 66.348, 332.629)"/><rect class="a" width="5.577" height="5.577" transform="matrix(0.182, -0.983, 0.983, 0.182, 57.587, 330.957)"/><rect class="a" width="5.577" height="5.577" transform="matrix(0.182, -0.983, 0.983, 0.182, 48.812, 329.363)"/><rect class="a" width="5.577" height="5.577" transform="matrix(0.182, -0.983, 0.983, 0.182, 39.972, 327.676)"/><rect class="a" width="5.577" height="5.577" transform="matrix(0.182, -0.983, 0.983, 0.182, 82.291, 344.67)"/><rect class="a" width="5.577" height="5.577" transform="matrix(0.182, -0.983, 0.983, 0.182, 73.531, 342.998)"/><rect class="a" width="5.577" height="5.577" transform="matrix(0.182, -0.983, 0.983, 0.182, 64.676, 341.39)"/><rect class="a" width="5.577" height="5.577" transform="matrix(0.182, -0.983, 0.983, 0.182, 55.915, 339.717)"/><rect class="a" width="5.577" height="5.577" transform="matrix(0.182, -0.983, 0.983, 0.182, 47.139, 338.124)"/><rect class="a" width="5.577" height="5.577" transform="matrix(0.182, -0.983, 0.983, 0.182, 38.364, 336.531)"/><rect class="a" width="5.577" height="5.577" transform="matrix(0.182, -0.983, 0.983, 0.182, 29.603, 334.858)"/><rect class="a" width="5.577" height="5.577" transform="matrix(0.182, -0.983, 0.983, 0.182, 80.619, 353.431)"/><rect class="a" width="5.577" height="5.577" transform="matrix(0.182, -0.983, 0.983, 0.182, 71.858, 351.758)"/><rect class="a" width="5.577" height="5.577" transform="matrix(0.182, -0.983, 0.983, 0.182, 63.083, 350.165)"/><rect class="a" width="5.577" height="5.577" transform="matrix(0.182, -0.983, 0.983, 0.182, 54.322, 348.493)"/><rect class="a" width="5.577" height="5.577" transform="matrix(0.182, -0.983, 0.983, 0.182, 45.547, 346.9)"/><rect class="a" width="5.577" height="5.577" transform="matrix(0.182, -0.983, 0.983, 0.182, 36.771, 345.306)"/><rect class="a" width="5.577" height="5.577" transform="matrix(0.182, -0.983, 0.983, 0.182, 28.01, 343.634)"/><rect class="a" width="5.577" height="5.577" transform="matrix(0.182, -0.983, 0.983, 0.182, 19.155, 342.026)"/><rect class="a" width="5.577" height="5.577" transform="matrix(0.182, -0.983, 0.983, 0.182, 79.025, 362.207)"/><rect class="a" width="5.577" height="5.577" transform="matrix(0.182, -0.983, 0.983, 0.182, 70.264, 360.534)"/><rect class="a" width="5.577" height="5.577" transform="matrix(0.182, -0.983, 0.983, 0.182, 61.489, 358.941)"/><rect class="a" width="5.577" height="5.577" transform="matrix(0.182, -0.983, 0.983, 0.182, 52.713, 357.348)"/><rect class="a" width="5.577" height="5.577" transform="matrix(0.182, -0.983, 0.983, 0.182, 43.873, 355.661)"/><rect class="a" width="5.577" height="5.577" transform="matrix(0.182, -0.983, 0.983, 0.182, 35.098, 354.068)"/><rect class="a" width="5.577" height="5.577" transform="matrix(0.182, -0.983, 0.983, 0.182, 8.786, 349.209)"/><rect class="a" width="5.577" height="5.577" transform="matrix(0.182, -0.983, 0.983, 0.182, 0.025, 347.535)"/><rect class="a" width="5.577" height="5.577" transform="matrix(0.182, -0.983, 0.983, 0.182, 77.353, 370.967)"/><rect class="a" width="5.577" height="5.577" transform="matrix(0.182, -0.983, 0.983, 0.182, 68.592, 369.295)"/><rect class="a" width="5.577" height="5.577" transform="matrix(0.182, -0.983, 0.983, 0.182, 59.817, 367.702)"/><rect class="a" width="5.577" height="5.577" transform="matrix(0.182, -0.983, 0.983, 0.182, 51.041, 366.109)"/><rect class="a" width="5.577" height="5.577" transform="matrix(0.182, -0.983, 0.983, 0.182, 42.281, 364.436)"/><rect class="a" width="5.577" height="5.577" transform="matrix(0.182, -0.983, 0.983, 0.182, 75.76, 379.743)"/><rect class="a" width="5.577" height="5.577" transform="matrix(0.182, -0.983, 0.983, 0.182, 66.984, 378.15)"/><rect class="a" width="5.577" height="5.577" transform="matrix(0.182, -0.983, 0.983, 0.182, 58.224, 376.477)"/><rect class="a" width="5.577" height="5.577" transform="matrix(0.182, -0.983, 0.983, 0.182, 49.448, 374.884)"/><rect class="a" width="5.577" height="5.577" transform="matrix(0.182, -0.983, 0.983, 0.182, 40.687, 373.211)"/><rect class="a" width="5.577" height="5.577" transform="matrix(0.182, -0.983, 0.983, 0.182, 31.912, 371.618)"/><rect class="a" width="5.577" height="5.577" transform="matrix(0.182, -0.983, 0.983, 0.182, 74.166, 388.518)"/><rect class="a" width="5.577" height="5.577" transform="matrix(0.182, -0.983, 0.983, 0.182, 65.391, 386.925)"/><rect class="a" width="5.577" height="5.577" transform="matrix(0.182, -0.983, 0.983, 0.182, 56.551, 385.238)"/><rect class="a" width="5.577" height="5.577" transform="matrix(0.182, -0.983, 0.983, 0.182, 47.775, 383.645)"/><rect class="a" width="5.577" height="5.577" transform="matrix(0.182, -0.983, 0.983, 0.182, 39, 382.052)"/><rect class="a" width="5.577" height="5.577" transform="matrix(0.182, -0.983, 0.983, 0.182, 63.719, 395.686)"/><rect class="a" width="5.577" height="5.577" transform="matrix(0.182, -0.983, 0.983, 0.182, 54.958, 394.013)"/><rect class="a" width="5.577" height="5.577" transform="matrix(0.182, -0.983, 0.983, 0.182, 46.182, 392.42)"/><rect class="a" width="5.577" height="5.577" transform="matrix(0.182, -0.983, 0.983, 0.182, 37.407, 390.827)"/><rect class="a" width="5.577" height="5.577" transform="matrix(0.182, -0.983, 0.983, 0.182, 62.125, 404.462)"/><rect class="a" width="5.577" height="5.577" transform="matrix(0.182, -0.983, 0.983, 0.182, 53.35, 402.869)"/><rect class="a" width="5.577" height="5.577" transform="matrix(0.182, -0.983, 0.983, 0.182, 44.589, 401.196)"/><rect class="a" width="5.577" height="5.577" transform="matrix(0.182, -0.983, 0.983, 0.182, 35.734, 399.588)"/><rect class="a" width="5.577" height="5.577" transform="matrix(0.182, -0.983, 0.983, 0.182, 51.677, 411.629)"/><rect class="a" width="5.577" height="5.577" transform="matrix(0.182, -0.983, 0.983, 0.182, 42.916, 409.957)"/><rect class="a" width="5.577" height="5.577" transform="matrix(0.182, -0.983, 0.983, 0.182, 34.141, 408.363)"/><rect class="a" width="5.577" height="5.577" transform="matrix(0.182, -0.983, 0.983, 0.182, 41.323, 418.732)"/><rect class="a" width="5.577" height="5.577" transform="matrix(0.182, -0.983, 0.983, 0.182, 48.491, 429.18)"/><rect class="a" width="5.577" height="5.577" transform="matrix(0.182, -0.983, 0.983, 0.182, 97.534, 311.097)"/><rect class="a" width="5.577" height="5.577" transform="matrix(0.182, -0.983, 0.983, 0.182, 95.925, 319.952)"/><rect class="a" width="5.577" height="5.577" transform="matrix(0.182, -0.983, 0.983, 0.182, 94.253, 328.713)"/><rect class="a" width="5.577" height="5.577" transform="matrix(0.182, -0.983, 0.983, 0.182, 87.8, 363.8)"/><rect class="a" width="5.577" height="5.577" transform="matrix(0.182, -0.983, 0.983, 0.182, 86.208, 372.575)"/><rect class="a" width="5.577" height="5.577" transform="matrix(0.182, -0.983, 0.983, 0.182, 107.967, 304.009)"/><rect class="a" width="5.577" height="5.577" transform="matrix(0.182, -0.983, 0.983, 0.182, 106.294, 312.77)"/><rect class="a" width="5.577" height="5.577" transform="matrix(0.182, -0.983, 0.983, 0.182, 104.701, 321.545)"/><rect class="a" width="5.577" height="5.577" transform="matrix(0.182, -0.983, 0.983, 0.182, 103.108, 330.321)"/><rect class="a" width="5.577" height="5.577" transform="matrix(0.182, -0.983, 0.983, 0.182, 118.335, 296.827)"/><rect class="a" width="5.577" height="5.577" transform="matrix(0.182, -0.983, 0.983, 0.182, 116.742, 305.602)"/><rect class="a" width="5.577" height="5.577" transform="matrix(0.182, -0.983, 0.983, 0.182, 115.07, 314.363)"/><rect class="a" width="5.577" height="5.577" transform="matrix(0.182, -0.983, 0.983, 0.182, 113.476, 323.139)"/><rect class="a" width="5.577" height="5.577" transform="matrix(0.182, -0.983, 0.983, 0.182, 108.603, 349.53)"/><rect class="a" width="5.577" height="5.577" transform="matrix(0.182, -0.983, 0.983, 0.182, 107.01, 358.305)"/><rect class="a" width="5.577" height="5.577" transform="matrix(0.182, -0.983, 0.983, 0.182, 105.337, 367.066)"/><rect class="a" width="5.577" height="5.577" transform="matrix(0.182, -0.983, 0.983, 0.182, 128.784, 289.659)"/><rect class="a" width="5.577" height="5.577" transform="matrix(0.182, -0.983, 0.983, 0.182, 127.111, 298.42)"/><rect class="a" width="5.577" height="5.577" transform="matrix(0.182, -0.983, 0.983, 0.182, 125.518, 307.196)"/><rect class="a" width="5.577" height="5.577" transform="matrix(0.182, -0.983, 0.983, 0.182, 123.91, 316.05)"/><rect class="a" width="5.577" height="5.577" transform="matrix(0.182, -0.983, 0.983, 0.182, 122.237, 324.811)"/><rect class="a" width="5.577" height="5.577" transform="matrix(0.182, -0.983, 0.983, 0.182, 120.644, 333.587)"/><rect class="a" width="5.577" height="5.577" transform="matrix(0.182, -0.983, 0.983, 0.182, 118.972, 342.347)"/><rect class="a" width="5.577" height="5.577" transform="matrix(0.182, -0.983, 0.983, 0.182, 117.379, 351.123)"/><rect class="a" width="5.577" height="5.577" transform="matrix(0.182, -0.983, 0.983, 0.182, 115.786, 359.898)"/><rect class="a" width="5.577" height="5.577" transform="matrix(0.182, -0.983, 0.983, 0.182, 114.112, 368.659)"/><rect class="a" width="5.577" height="5.577" transform="matrix(0.182, -0.983, 0.983, 0.182, 112.52, 377.435)"/><rect class="a" width="5.577" height="5.577" transform="matrix(0.182, -0.983, 0.983, 0.182, 137.545, 291.332)"/><rect class="a" width="5.577" height="5.577" transform="matrix(0.182, -0.983, 0.983, 0.182, 135.871, 300.093)"/><rect class="a" width="5.577" height="5.577" transform="matrix(0.182, -0.983, 0.983, 0.182, 134.279, 308.868)"/><rect class="a" width="5.577" height="5.577" transform="matrix(0.182, -0.983, 0.983, 0.182, 132.686, 317.644)"/><rect class="a" width="5.577" height="5.577" transform="matrix(0.182, -0.983, 0.983, 0.182, 131.013, 326.405)"/><rect class="a" width="5.577" height="5.577" transform="matrix(0.182, -0.983, 0.983, 0.182, 127.827, 343.956)"/><rect class="a" width="5.577" height="5.577" transform="matrix(0.182, -0.983, 0.983, 0.182, 126.154, 352.716)"/><rect class="a" width="5.577" height="5.577" transform="matrix(0.182, -0.983, 0.983, 0.182, 124.547, 361.571)"/><rect class="a" width="5.577" height="5.577" transform="matrix(0.182, -0.983, 0.983, 0.182, 146.32, 292.925)"/><rect class="a" width="5.577" height="5.577" transform="matrix(0.182, -0.983, 0.983, 0.182, 144.726, 301.7)"/><rect class="a" width="5.577" height="5.577" transform="matrix(0.182, -0.983, 0.983, 0.182, 143.054, 310.461)"/><rect class="a" width="5.577" height="5.577" transform="matrix(0.182, -0.983, 0.983, 0.182, 141.461, 319.236)"/><rect class="a" width="5.577" height="5.577" transform="matrix(0.182, -0.983, 0.983, 0.182, 139.788, 327.997)"/><rect class="a" width="5.577" height="5.577" transform="matrix(0.182, -0.983, 0.983, 0.182, 136.587, 345.628)"/><rect class="a" width="5.577" height="5.577" transform="matrix(0.182, -0.983, 0.983, 0.182, 134.915, 354.388)"/><rect class="a" width="5.577" height="5.577" transform="matrix(0.182, -0.983, 0.983, 0.182, 155.096, 294.519)"/><rect class="a" width="5.577" height="5.577" transform="matrix(0.182, -0.983, 0.983, 0.182, 153.488, 303.374)"/><rect class="a" width="5.577" height="5.577" transform="matrix(0.182, -0.983, 0.983, 0.182, 151.816, 312.135)"/><rect class="a" width="5.577" height="5.577" transform="matrix(0.182, -0.983, 0.983, 0.182, 150.222, 320.91)"/><rect class="a" width="5.577" height="5.577" transform="matrix(0.182, -0.983, 0.983, 0.182, 148.629, 329.686)"/><rect class="a" width="5.577" height="5.577" transform="matrix(0.182, -0.983, 0.983, 0.182, 146.956, 338.447)"/><rect class="a" width="5.577" height="5.577" transform="matrix(0.182, -0.983, 0.983, 0.182, 145.363, 347.222)"/><rect class="a" width="5.577" height="5.577" transform="matrix(0.182, -0.983, 0.983, 0.182, 143.691, 355.983)"/><rect class="a" width="5.577" height="5.577" transform="matrix(0.182, -0.983, 0.983, 0.182, 163.856, 296.191)"/><rect class="a" width="5.577" height="5.577" transform="matrix(0.182, -0.983, 0.983, 0.182, 162.263, 304.967)"/><rect class="a" width="5.577" height="5.577" transform="matrix(0.182, -0.983, 0.983, 0.182, 160.59, 313.727)"/><rect class="a" width="5.577" height="5.577" transform="matrix(0.182, -0.983, 0.983, 0.182, 158.997, 322.503)"/><rect class="a" width="5.577" height="5.577" transform="matrix(0.182, -0.983, 0.983, 0.182, 157.404, 331.278)"/><rect class="a" width="5.577" height="5.577" transform="matrix(0.182, -0.983, 0.983, 0.182, 155.731, 340.039)"/><rect class="a" width="5.577" height="5.577" transform="matrix(0.182, -0.983, 0.983, 0.182, 154.138, 348.814)"/><rect class="a" width="5.577" height="5.577" transform="matrix(0.182, -0.983, 0.983, 0.182, 152.531, 357.669)"/><rect class="a" width="5.577" height="5.577" transform="matrix(0.182, -0.983, 0.983, 0.182, 150.858, 366.43)"/><rect class="a" width="5.577" height="5.577" transform="matrix(0.182, -0.983, 0.983, 0.182, 254.912, 294.839)"/><rect class="a" width="5.577" height="5.577" transform="matrix(0.182, -0.983, 0.983, 0.182, 246.136, 293.246)"/><rect class="a" width="5.577" height="5.577" transform="matrix(0.182, -0.983, 0.983, 0.182, 237.361, 291.653)"/><rect class="a" width="5.577" height="5.577" transform="matrix(0.182, -0.983, 0.983, 0.182, 228.6, 289.98)"/><rect class="a" width="5.577" height="5.577" transform="matrix(0.182, -0.983, 0.983, 0.182, 219.824, 288.387)"/><rect class="a" width="5.577" height="5.577" transform="matrix(0.182, -0.983, 0.983, 0.182, 253.304, 303.694)"/><rect class="a" width="5.577" height="5.577" transform="matrix(0.182, -0.983, 0.983, 0.182, 244.543, 302.021)"/><rect class="a" width="5.577" height="5.577" transform="matrix(0.182, -0.983, 0.983, 0.182, 235.689, 300.414)"/><rect class="a" width="5.577" height="5.577" transform="matrix(0.182, -0.983, 0.983, 0.182, 226.928, 298.741)"/><rect class="a" width="5.577" height="5.577" transform="matrix(0.182, -0.983, 0.983, 0.182, 218.152, 297.147)"/><rect class="a" width="5.577" height="5.577" transform="matrix(0.182, -0.983, 0.983, 0.182, 200.616, 293.882)"/><rect class="a" width="5.577" height="5.577" transform="matrix(0.182, -0.983, 0.983, 0.182, 191.84, 292.289)"/><rect class="a" width="5.577" height="5.577" transform="matrix(0.182, -0.983, 0.983, 0.182, 251.632, 312.455)"/><rect class="a" width="5.577" height="5.577" transform="matrix(0.182, -0.983, 0.983, 0.182, 242.871, 310.782)"/><rect class="a" width="5.577" height="5.577" transform="matrix(0.182, -0.983, 0.983, 0.182, 234.096, 309.189)"/><rect class="a" width="5.577" height="5.577" transform="matrix(0.182, -0.983, 0.983, 0.182, 225.334, 307.517)"/><rect class="a" width="5.577" height="5.577" transform="matrix(0.182, -0.983, 0.983, 0.182, 216.559, 305.923)"/><rect class="a" width="5.577" height="5.577" transform="matrix(0.182, -0.983, 0.983, 0.182, 207.784, 304.331)"/><rect class="a" width="5.577" height="5.577" transform="matrix(0.182, -0.983, 0.983, 0.182, 199.023, 302.658)"/><rect class="a" width="5.577" height="5.577" transform="matrix(0.182, -0.983, 0.983, 0.182, 190.247, 301.064)"/><rect class="a" width="5.577" height="5.577" transform="matrix(0.182, -0.983, 0.983, 0.182, 181.393, 299.457)"/><rect class="a" width="5.577" height="5.577" transform="matrix(0.182, -0.983, 0.983, 0.182, 172.632, 297.784)"/><rect class="a" width="5.577" height="5.577" transform="matrix(0.182, -0.983, 0.983, 0.182, 163.856, 296.191)"/><rect class="a" width="5.577" height="5.577" transform="matrix(0.182, -0.983, 0.983, 0.182, 250.038, 321.231)"/><rect class="a" width="5.577" height="5.577" transform="matrix(0.182, -0.983, 0.983, 0.182, 241.277, 319.558)"/><rect class="a" width="5.577" height="5.577" transform="matrix(0.182, -0.983, 0.983, 0.182, 232.502, 317.965)"/><rect class="a" width="5.577" height="5.577" transform="matrix(0.182, -0.983, 0.983, 0.182, 223.726, 316.372)"/><rect class="a" width="5.577" height="5.577" transform="matrix(0.182, -0.983, 0.983, 0.182, 214.886, 314.684)"/><rect class="a" width="5.577" height="5.577" transform="matrix(0.182, -0.983, 0.983, 0.182, 206.111, 313.091)"/><rect class="a" width="5.577" height="5.577" transform="matrix(0.182, -0.983, 0.983, 0.182, 197.35, 311.419)"/><rect class="a" width="5.577" height="5.577" transform="matrix(0.182, -0.983, 0.983, 0.182, 188.574, 309.825)"/><rect class="a" width="5.577" height="5.577" transform="matrix(0.182, -0.983, 0.983, 0.182, 179.799, 308.233)"/><rect class="a" width="5.577" height="5.577" transform="matrix(0.182, -0.983, 0.983, 0.182, 171.038, 306.56)"/><rect class="a" width="5.577" height="5.577" transform="matrix(0.182, -0.983, 0.983, 0.182, 162.263, 304.967)"/><rect class="a" width="5.577" height="5.577" transform="matrix(0.182, -0.983, 0.983, 0.182, 248.445, 330.006)"/><rect class="a" width="5.577" height="5.577" transform="matrix(0.182, -0.983, 0.983, 0.182, 239.605, 328.318)"/><rect class="a" width="5.577" height="5.577" transform="matrix(0.182, -0.983, 0.983, 0.182, 230.83, 326.726)"/><rect class="a" width="5.577" height="5.577" transform="matrix(0.182, -0.983, 0.983, 0.182, 222.054, 325.132)"/><rect class="a" width="5.577" height="5.577" transform="matrix(0.182, -0.983, 0.983, 0.182, 213.293, 323.459)"/><rect class="a" width="5.577" height="5.577" transform="matrix(0.182, -0.983, 0.983, 0.182, 204.518, 321.867)"/><rect class="a" width="5.577" height="5.577" transform="matrix(0.182, -0.983, 0.983, 0.182, 195.742, 320.274)"/><rect class="a" width="5.577" height="5.577" transform="matrix(0.182, -0.983, 0.983, 0.182, 186.981, 318.6)"/><rect class="a" width="5.577" height="5.577" transform="matrix(0.182, -0.983, 0.983, 0.182, 178.206, 317.008)"/><rect class="a" width="5.577" height="5.577" transform="matrix(0.182, -0.983, 0.983, 0.182, 169.445, 315.335)"/><rect class="a" width="5.577" height="5.577" transform="matrix(0.182, -0.983, 0.983, 0.182, 160.59, 313.727)"/><rect class="a" width="5.577" height="5.577" transform="matrix(0.182, -0.983, 0.983, 0.182, 246.773, 338.767)"/><rect class="a" width="5.577" height="5.577" transform="matrix(0.182, -0.983, 0.983, 0.182, 220.461, 333.908)"/><rect class="a" width="5.577" height="5.577" transform="matrix(0.182, -0.983, 0.983, 0.182, 211.7, 332.235)"/><rect class="a" width="5.577" height="5.577" transform="matrix(0.182, -0.983, 0.983, 0.182, 202.925, 330.642)"/><rect class="a" width="5.577" height="5.577" transform="matrix(0.182, -0.983, 0.983, 0.182, 194.07, 329.034)"/><rect class="a" width="5.577" height="5.577" transform="matrix(0.182, -0.983, 0.983, 0.182, 185.309, 327.361)"/><rect class="a" width="5.577" height="5.577" transform="matrix(0.182, -0.983, 0.983, 0.182, 158.997, 322.503)"/><rect class="a" width="5.577" height="5.577" transform="matrix(0.182, -0.983, 0.983, 0.182, 227.643, 344.277)"/><rect class="a" width="5.577" height="5.577" transform="matrix(0.182, -0.983, 0.983, 0.182, 218.788, 342.669)"/><rect class="a" width="5.577" height="5.577" transform="matrix(0.182, -0.983, 0.983, 0.182, 210.013, 341.075)"/><rect class="a" width="5.577" height="5.577" transform="matrix(0.182, -0.983, 0.983, 0.182, 201.252, 339.403)"/><rect class="a" width="5.577" height="5.577" transform="matrix(0.182, -0.983, 0.983, 0.182, 192.476, 337.81)"/><rect class="a" width="5.577" height="5.577" transform="matrix(0.182, -0.983, 0.983, 0.182, 174.94, 334.544)"/><rect class="a" width="5.577" height="5.577" transform="matrix(0.182, -0.983, 0.983, 0.182, 157.404, 331.278)"/><rect class="a" width="5.577" height="5.577" transform="matrix(0.182, -0.983, 0.983, 0.182, 217.195, 351.444)"/><rect class="a" width="5.577" height="5.577" transform="matrix(0.182, -0.983, 0.983, 0.182, 208.419, 349.851)"/><rect class="a" width="5.577" height="5.577" transform="matrix(0.182, -0.983, 0.983, 0.182, 199.659, 348.179)"/><rect class="a" width="5.577" height="5.577" transform="matrix(0.182, -0.983, 0.983, 0.182, 190.883, 346.585)"/><rect class="a" width="5.577" height="5.577" transform="matrix(0.182, -0.983, 0.983, 0.182, 182.107, 344.992)"/><rect class="a" width="5.577" height="5.577" transform="matrix(0.182, -0.983, 0.983, 0.182, 164.492, 341.711)"/><rect class="a" width="5.577" height="5.577" transform="matrix(0.182, -0.983, 0.983, 0.182, 155.731, 340.039)"/><rect class="a" width="5.577" height="5.577" transform="matrix(0.182, -0.983, 0.983, 0.182, 206.826, 358.626)"/><rect class="a" width="5.577" height="5.577" transform="matrix(0.182, -0.983, 0.983, 0.182, 197.986, 356.939)"/><rect class="a" width="5.577" height="5.577" transform="matrix(0.182, -0.983, 0.983, 0.182, 189.211, 355.346)"/><rect class="a" width="5.577" height="5.577" transform="matrix(0.182, -0.983, 0.983, 0.182, 180.435, 353.752)"/><rect class="a" width="5.577" height="5.577" transform="matrix(0.182, -0.983, 0.983, 0.182, 162.899, 350.487)"/><rect class="a" width="5.577" height="5.577" transform="matrix(0.182, -0.983, 0.983, 0.182, 154.138, 348.814)"/><rect class="a" width="5.577" height="5.577" transform="matrix(0.182, -0.983, 0.983, 0.182, 196.393, 365.715)"/><rect class="a" width="5.577" height="5.577" transform="matrix(0.182, -0.983, 0.983, 0.182, 187.618, 364.121)"/><rect class="a" width="5.577" height="5.577" transform="matrix(0.182, -0.983, 0.983, 0.182, 161.306, 359.262)"/><rect class="a" width="5.577" height="5.577" transform="matrix(0.182, -0.983, 0.983, 0.182, 152.531, 357.669)"/><rect class="a" width="5.577" height="5.577" transform="matrix(0.182, -0.983, 0.983, 0.182, 150.858, 366.43)"/><rect class="a" width="5.577" height="5.577" transform="matrix(0.182, -0.983, 0.983, 0.182, 263.673, 296.512)"/><rect class="a" width="5.577" height="5.577" transform="matrix(0.182, -0.983, 0.983, 0.182, 262.08, 305.287)"/><rect class="a" width="5.577" height="5.577" transform="matrix(0.182, -0.983, 0.983, 0.182, 260.407, 314.048)"/><rect class="a" width="5.577" height="5.577" transform="matrix(0.182, -0.983, 0.983, 0.182, 258.813, 322.824)"/><rect class="a" width="5.577" height="5.577" transform="matrix(0.182, -0.983, 0.983, 0.182, 257.22, 331.599)"/><rect class="a" width="5.577" height="5.577" transform="matrix(0.182, -0.983, 0.983, 0.182, 255.548, 340.36)"/><rect class="a" width="5.577" height="5.577" transform="matrix(0.182, -0.983, 0.983, 0.182, 272.448, 298.105)"/><rect class="a" width="5.577" height="5.577" transform="matrix(0.182, -0.983, 0.983, 0.182, 270.855, 306.88)"/><rect class="a" width="5.577" height="5.577" transform="matrix(0.182, -0.983, 0.983, 0.182, 269.262, 315.656)"/><rect class="a" width="5.577" height="5.577" transform="matrix(0.182, -0.983, 0.983, 0.182, 267.574, 324.496)"/><rect class="a" width="5.577" height="5.577" transform="matrix(0.182, -0.983, 0.983, 0.182, 265.981, 333.272)"/><rect class="a" width="5.577" height="5.577" transform="matrix(0.182, -0.983, 0.983, 0.182, 264.309, 342.033)"/><rect class="a" width="5.577" height="5.577" transform="matrix(0.182, -0.983, 0.983, 0.182, 281.209, 299.778)"/><rect class="a" width="5.577" height="5.577" transform="matrix(0.182, -0.983, 0.983, 0.182, 279.616, 308.553)"/><rect class="a" width="5.577" height="5.577" transform="matrix(0.182, -0.983, 0.983, 0.182, 278.023, 317.329)"/><rect class="a" width="5.577" height="5.577" transform="matrix(0.182, -0.983, 0.983, 0.182, 276.35, 326.09)"/><rect class="a" width="5.577" height="5.577" transform="matrix(0.182, -0.983, 0.983, 0.182, 274.757, 334.865)"/><rect class="a" width="5.577" height="5.577" transform="matrix(0.182, -0.983, 0.983, 0.182, 290.064, 301.386)"/><rect class="a" width="5.577" height="5.577" transform="matrix(0.182, -0.983, 0.983, 0.182, 288.392, 310.146)"/><rect class="a" width="5.577" height="5.577" transform="matrix(0.182, -0.983, 0.983, 0.182, 286.798, 318.922)"/><rect class="a" width="5.577" height="5.577" transform="matrix(0.182, -0.983, 0.983, 0.182, 285.126, 327.683)"/><rect class="a" width="5.577" height="5.577" transform="matrix(0.182, -0.983, 0.983, 0.182, 281.924, 345.313)"/><rect class="a" width="5.577" height="5.577" transform="matrix(0.182, -0.983, 0.983, 0.182, 298.839, 302.979)"/><rect class="a" width="5.577" height="5.577" transform="matrix(0.182, -0.983, 0.983, 0.182, 297.167, 311.739)"/><rect class="a" width="5.577" height="5.577" transform="matrix(0.182, -0.983, 0.983, 0.182, 295.559, 320.595)"/><rect class="a" width="5.577" height="5.577" transform="matrix(0.182, -0.983, 0.983, 0.182, 293.886, 329.355)"/><rect class="a" width="5.577" height="5.577" transform="matrix(0.182, -0.983, 0.983, 0.182, 292.293, 338.131)"/><rect class="a" width="5.577" height="5.577" transform="matrix(0.182, -0.983, 0.983, 0.182, 290.7, 346.906)"/><rect class="a" width="5.577" height="5.577" transform="matrix(0.182, -0.983, 0.983, 0.182, 307.6, 304.652)"/><rect class="a" width="5.577" height="5.577" transform="matrix(0.182, -0.983, 0.983, 0.182, 305.927, 313.412)"/><rect class="a" width="5.577" height="5.577" transform="matrix(0.182, -0.983, 0.983, 0.182, 304.335, 322.188)"/><rect class="a" width="5.577" height="5.577" transform="matrix(0.182, -0.983, 0.983, 0.182, 316.376, 306.245)"/><rect class="a" width="5.577" height="5.577" transform="matrix(0.182, -0.983, 0.983, 0.182, 314.703, 315.006)"/><rect class="a" width="5.577" height="5.577" transform="matrix(0.182, -0.983, 0.983, 0.182, 313.111, 323.782)"/><rect class="a" width="5.577" height="5.577" transform="matrix(0.182, -0.983, 0.983, 0.182, 311.517, 332.557)"/><rect class="a" width="5.577" height="5.577" transform="matrix(0.182, -0.983, 0.983, 0.182, 325.152, 307.838)"/><rect class="a" width="5.577" height="5.577" transform="matrix(0.182, -0.983, 0.983, 0.182, 323.544, 316.693)"/><rect class="a" width="5.577" height="5.577" transform="matrix(0.182, -0.983, 0.983, 0.182, 321.871, 325.454)"/><rect class="a" width="5.577" height="5.577" transform="matrix(0.182, -0.983, 0.983, 0.182, 320.277, 334.229)"/><rect class="a" width="5.577" height="5.577" transform="matrix(0.182, -0.983, 0.983, 0.182, 318.605, 342.99)"/><rect class="a" width="5.577" height="5.577" transform="matrix(0.182, -0.983, 0.983, 0.182, 382.384, 146.003)"/><rect class="a" width="5.577" height="5.577" transform="matrix(0.182, -0.983, 0.983, 0.182, 373.543, 144.316)"/><rect class="a" width="5.577" height="5.577" transform="matrix(0.182, -0.983, 0.983, 0.182, 364.767, 142.723)"/><rect class="a" width="5.577" height="5.577" transform="matrix(0.182, -0.983, 0.983, 0.182, 356.006, 141.05)"/><rect class="a" width="5.577" height="5.577" transform="matrix(0.182, -0.983, 0.983, 0.182, 380.711, 154.764)"/><rect class="a" width="5.577" height="5.577" transform="matrix(0.182, -0.983, 0.983, 0.182, 371.95, 153.091)"/><rect class="a" width="5.577" height="5.577" transform="matrix(0.182, -0.983, 0.983, 0.182, 363.175, 151.498)"/><rect class="a" width="5.577" height="5.577" transform="matrix(0.182, -0.983, 0.983, 0.182, 354.414, 149.825)"/><rect class="a" width="5.577" height="5.577" transform="matrix(0.182, -0.983, 0.983, 0.182, 379.118, 163.539)"/><rect class="a" width="5.577" height="5.577" transform="matrix(0.182, -0.983, 0.983, 0.182, 370.357, 161.867)"/><rect class="a" width="5.577" height="5.577" transform="matrix(0.182, -0.983, 0.983, 0.182, 361.581, 160.274)"/><rect class="a" width="5.577" height="5.577" transform="matrix(0.182, -0.983, 0.983, 0.182, 352.726, 158.665)"/><rect class="a" width="5.577" height="5.577" transform="matrix(0.182, -0.983, 0.983, 0.182, 386.3, 173.908)"/><rect class="a" width="5.577" height="5.577" transform="matrix(0.182, -0.983, 0.983, 0.182, 377.444, 172.3)"/><rect class="a" width="5.577" height="5.577" transform="matrix(0.182, -0.983, 0.983, 0.182, 368.684, 170.627)"/><rect class="a" width="5.577" height="5.577" transform="matrix(0.182, -0.983, 0.983, 0.182, 359.909, 169.034)"/><rect class="a" width="5.577" height="5.577" transform="matrix(0.182, -0.983, 0.983, 0.182, 351.133, 167.441)"/><rect class="a" width="5.577" height="5.577" transform="matrix(0.182, -0.983, 0.983, 0.182, 384.627, 182.669)"/><rect class="a" width="5.577" height="5.577" transform="matrix(0.182, -0.983, 0.983, 0.182, 375.852, 181.076)"/><rect class="a" width="5.577" height="5.577" transform="matrix(0.182, -0.983, 0.983, 0.182, 367.076, 179.482)"/><rect class="a" width="5.577" height="5.577" transform="matrix(0.182, -0.983, 0.983, 0.182, 358.315, 177.81)"/><rect class="a" width="5.577" height="5.577" transform="matrix(0.182, -0.983, 0.983, 0.182, 349.54, 176.216)"/><rect class="a" width="5.577" height="5.577" transform="matrix(0.182, -0.983, 0.983, 0.182, 391.795, 193.117)"/><rect class="a" width="5.577" height="5.577" transform="matrix(0.182, -0.983, 0.983, 0.182, 383.034, 191.444)"/><rect class="a" width="5.577" height="5.577" transform="matrix(0.182, -0.983, 0.983, 0.182, 374.258, 189.851)"/><rect class="a" width="5.577" height="5.577" transform="matrix(0.182, -0.983, 0.983, 0.182, 365.483, 188.258)"/><rect class="a" width="5.577" height="5.577" transform="matrix(0.182, -0.983, 0.983, 0.182, 356.643, 186.571)"/><rect class="a" width="5.577" height="5.577" transform="matrix(0.182, -0.983, 0.983, 0.182, 347.867, 184.977)"/><rect class="a" width="5.577" height="5.577" transform="matrix(0.182, -0.983, 0.983, 0.182, 390.201, 201.892)"/><rect class="a" width="5.577" height="5.577" transform="matrix(0.182, -0.983, 0.983, 0.182, 381.347, 200.284)"/><rect class="a" width="5.577" height="5.577" transform="matrix(0.182, -0.983, 0.983, 0.182, 372.586, 198.612)"/><rect class="a" width="5.577" height="5.577" transform="matrix(0.182, -0.983, 0.983, 0.182, 363.81, 197.018)"/><rect class="a" width="5.577" height="5.577" transform="matrix(0.182, -0.983, 0.983, 0.182, 355.05, 195.346)"/><rect class="a" width="5.577" height="5.577" transform="matrix(0.182, -0.983, 0.983, 0.182, 346.274, 193.753)"/><rect class="a" width="5.577" height="5.577" transform="matrix(0.182, -0.983, 0.983, 0.182, 388.529, 210.653)"/><rect class="a" width="5.577" height="5.577" transform="matrix(0.182, -0.983, 0.983, 0.182, 379.753, 209.06)"/><rect class="a" width="5.577" height="5.577" transform="matrix(0.182, -0.983, 0.983, 0.182, 370.992, 207.387)"/><rect class="a" width="5.577" height="5.577" transform="matrix(0.182, -0.983, 0.983, 0.182, 362.217, 205.794)"/><rect class="a" width="5.577" height="5.577" transform="matrix(0.182, -0.983, 0.983, 0.182, 353.441, 204.201)"/><rect class="a" width="5.577" height="5.577" transform="matrix(0.182, -0.983, 0.983, 0.182, 344.681, 202.528)"/><rect class="a" width="5.577" height="5.577" transform="matrix(0.182, -0.983, 0.983, 0.182, 378.161, 217.835)"/><rect class="a" width="5.577" height="5.577" transform="matrix(0.182, -0.983, 0.983, 0.182, 369.4, 216.163)"/><rect class="a" width="5.577" height="5.577" transform="matrix(0.182, -0.983, 0.983, 0.182, 360.544, 214.555)"/><rect class="a" width="5.577" height="5.577" transform="matrix(0.182, -0.983, 0.983, 0.182, 351.769, 212.962)"/><rect class="a" width="5.577" height="5.577" transform="matrix(0.182, -0.983, 0.983, 0.182, 343.008, 211.289)"/><rect class="a" width="5.577" height="5.577" transform="matrix(0.182, -0.983, 0.983, 0.182, 376.488, 226.596)"/><rect class="a" width="5.577" height="5.577" transform="matrix(0.182, -0.983, 0.983, 0.182, 367.712, 225.003)"/><rect class="a" width="5.577" height="5.577" transform="matrix(0.182, -0.983, 0.983, 0.182, 358.951, 223.33)"/><rect class="a" width="5.577" height="5.577" transform="matrix(0.182, -0.983, 0.983, 0.182, 350.176, 221.737)"/><rect class="a" width="5.577" height="5.577" transform="matrix(0.182, -0.983, 0.983, 0.182, 341.415, 220.064)"/><rect class="a" width="5.577" height="5.577" transform="matrix(0.182, -0.983, 0.983, 0.182, 374.895, 235.371)"/><rect class="a" width="5.577" height="5.577" transform="matrix(0.182, -0.983, 0.983, 0.182, 366.12, 233.778)"/><rect class="a" width="5.577" height="5.577" transform="matrix(0.182, -0.983, 0.983, 0.182, 357.359, 232.105)"/><rect class="a" width="5.577" height="5.577" transform="matrix(0.182, -0.983, 0.983, 0.182, 348.583, 230.512)"/><rect class="a" width="5.577" height="5.577" transform="matrix(0.182, -0.983, 0.983, 0.182, 339.743, 228.825)"/><rect class="a" width="5.577" height="5.577" transform="matrix(0.182, -0.983, 0.983, 0.182, 355.685, 240.866)"/><rect class="a" width="5.577" height="5.577" transform="matrix(0.182, -0.983, 0.983, 0.182, 346.911, 239.273)"/><rect class="a" width="5.577" height="5.577" transform="matrix(0.182, -0.983, 0.983, 0.182, 338.135, 237.68)"/><rect class="a" width="5.577" height="5.577" transform="matrix(0.182, -0.983, 0.983, 0.182, 354.093, 249.642)"/><rect class="a" width="5.577" height="5.577" transform="matrix(0.182, -0.983, 0.983, 0.182, 345.318, 248.049)"/><rect class="a" width="5.577" height="5.577" transform="matrix(0.182, -0.983, 0.983, 0.182, 336.542, 246.455)"/><rect class="a" width="5.577" height="5.577" transform="matrix(0.182, -0.983, 0.983, 0.182, 352.405, 258.482)"/><rect class="a" width="5.577" height="5.577" transform="matrix(0.182, -0.983, 0.983, 0.182, 343.645, 256.81)"/><rect class="a" width="5.577" height="5.577" transform="matrix(0.182, -0.983, 0.983, 0.182, 334.869, 255.216)"/><rect class="a" width="5.577" height="5.577" transform="matrix(0.182, -0.983, 0.983, 0.182, 350.812, 267.258)"/><rect class="a" width="5.577" height="5.577" transform="matrix(0.182, -0.983, 0.983, 0.182, 342.051, 265.585)"/><rect class="a" width="5.577" height="5.577" transform="matrix(0.182, -0.983, 0.983, 0.182, 333.275, 263.992)"/><rect class="a" width="5.577" height="5.577" transform="matrix(0.182, -0.983, 0.983, 0.182, 349.219, 276.033)"/><rect class="a" width="5.577" height="5.577" transform="matrix(0.182, -0.983, 0.983, 0.182, 340.458, 274.361)"/><rect class="a" width="5.577" height="5.577" transform="matrix(0.182, -0.983, 0.983, 0.182, 331.604, 272.752)"/><rect class="a" width="5.577" height="5.577" transform="matrix(0.182, -0.983, 0.983, 0.182, 347.546, 284.794)"/><rect class="a" width="5.577" height="5.577" transform="matrix(0.182, -0.983, 0.983, 0.182, 338.771, 283.201)"/><rect class="a" width="5.577" height="5.577" transform="matrix(0.182, -0.983, 0.983, 0.182, 330.01, 281.528)"/><rect class="a" width="5.577" height="5.577" transform="matrix(0.182, -0.983, 0.983, 0.182, 337.177, 291.976)"/><rect class="a" width="5.577" height="5.577" transform="matrix(0.182, -0.983, 0.983, 0.182, 328.417, 290.303)"/><rect class="a" width="5.577" height="5.577" transform="matrix(0.182, -0.983, 0.983, 0.182, 335.505, 300.737)"/><rect class="a" width="5.577" height="5.577" transform="matrix(0.182, -0.983, 0.983, 0.182, 326.744, 299.064)"/><rect class="a" width="5.577" height="5.577" transform="matrix(0.182, -0.983, 0.983, 0.182, 342.687, 311.105)"/><rect class="a" width="5.577" height="5.577" transform="matrix(0.182, -0.983, 0.983, 0.182, 333.912, 309.512)"/><rect class="a" width="5.577" height="5.577" transform="matrix(0.182, -0.983, 0.983, 0.182, 325.151, 307.84)"/><rect class="a" width="5.577" height="5.577" transform="matrix(0.182, -0.983, 0.983, 0.182, 417.156, 7.118)"/><rect class="a" width="5.577" height="5.577" transform="matrix(0.182, -0.983, 0.983, 0.182, 408.38, 5.524)"/><rect class="a" width="5.577" height="5.577" transform="matrix(0.182, -0.983, 0.983, 0.182, 424.323, 17.565)"/><rect class="a" width="5.577" height="5.577" transform="matrix(0.182, -0.983, 0.983, 0.182, 415.483, 15.879)"/><rect class="a" width="5.577" height="5.577" transform="matrix(0.182, -0.983, 0.983, 0.182, 406.708, 14.285)"/><rect class="a" width="5.577" height="5.577" transform="matrix(0.182, -0.983, 0.983, 0.182, 431.426, 27.919)"/><rect class="a" width="5.577" height="5.577" transform="matrix(0.182, -0.983, 0.983, 0.182, 422.651, 26.326)"/><rect class="a" width="5.577" height="5.577" transform="matrix(0.182, -0.983, 0.983, 0.182, 413.89, 24.654)"/><rect class="a" width="5.577" height="5.577" transform="matrix(0.182, -0.983, 0.983, 0.182, 429.833, 36.695)"/><rect class="a" width="5.577" height="5.577" transform="matrix(0.182, -0.983, 0.983, 0.182, 421.057, 35.101)"/><rect class="a" width="5.577" height="5.577" transform="matrix(0.182, -0.983, 0.983, 0.182, 412.297, 33.429)"/><rect class="a" width="5.577" height="5.577" transform="matrix(0.182, -0.983, 0.983, 0.182, 428.24, 45.47)"/><rect class="a" width="5.577" height="5.577" transform="matrix(0.182, -0.983, 0.983, 0.182, 419.385, 43.862)"/><rect class="a" width="5.577" height="5.577" transform="matrix(0.182, -0.983, 0.983, 0.182, 410.609, 42.27)"/><rect class="a" width="5.577" height="5.577" transform="matrix(0.182, -0.983, 0.983, 0.182, 426.566, 54.231)"/><rect class="a" width="5.577" height="5.577" transform="matrix(0.182, -0.983, 0.983, 0.182, 417.791, 52.638)"/><rect class="a" width="5.577" height="5.577" transform="matrix(0.182, -0.983, 0.983, 0.182, 409.016, 51.045)"/><rect class="a" width="5.577" height="5.577" transform="matrix(0.182, -0.983, 0.983, 0.182, 424.959, 63.086)"/><rect class="a" width="5.577" height="5.577" transform="matrix(0.182, -0.983, 0.983, 0.182, 416.199, 61.413)"/><rect class="a" width="5.577" height="5.577" transform="matrix(0.182, -0.983, 0.983, 0.182, 407.424, 59.82)"/><rect class="a" width="5.577" height="5.577" transform="matrix(0.182, -0.983, 0.983, 0.182, 398.583, 58.133)"/><rect class="a" width="5.577" height="5.577" transform="matrix(0.182, -0.983, 0.983, 0.182, 423.286, 71.847)"/><rect class="a" width="5.577" height="5.577" transform="matrix(0.182, -0.983, 0.983, 0.182, 414.526, 70.174)"/><rect class="a" width="5.577" height="5.577" transform="matrix(0.182, -0.983, 0.983, 0.182, 405.75, 68.581)"/><rect class="a" width="5.577" height="5.577" transform="matrix(0.182, -0.983, 0.983, 0.182, 396.975, 66.988)"/><rect class="a" width="5.577" height="5.577" transform="matrix(0.182, -0.983, 0.983, 0.182, 421.694, 80.622)"/><rect class="a" width="5.577" height="5.577" transform="matrix(0.182, -0.983, 0.983, 0.182, 412.933, 78.949)"/><rect class="a" width="5.577" height="5.577" transform="matrix(0.182, -0.983, 0.983, 0.182, 404.158, 77.357)"/><rect class="a" width="5.577" height="5.577" transform="matrix(0.182, -0.983, 0.983, 0.182, 395.382, 75.763)"/><rect class="a" width="5.577" height="5.577" transform="matrix(0.182, -0.983, 0.983, 0.182, 377.766, 72.483)"/><rect class="a" width="5.577" height="5.577" transform="matrix(0.182, -0.983, 0.983, 0.182, 369.005, 70.81)"/><rect class="a" width="5.577" height="5.577" transform="matrix(0.182, -0.983, 0.983, 0.182, 420.1, 89.398)"/><rect class="a" width="5.577" height="5.577" transform="matrix(0.182, -0.983, 0.983, 0.182, 411.245, 87.79)"/><rect class="a" width="5.577" height="5.577" transform="matrix(0.182, -0.983, 0.983, 0.182, 402.484, 86.118)"/><rect class="a" width="5.577" height="5.577" transform="matrix(0.182, -0.983, 0.983, 0.182, 393.709, 84.524)"/><rect class="a" width="5.577" height="5.577" transform="matrix(0.182, -0.983, 0.983, 0.182, 384.949, 82.851)"/><rect class="a" width="5.577" height="5.577" transform="matrix(0.182, -0.983, 0.983, 0.182, 376.173, 81.259)"/><rect class="a" width="5.577" height="5.577" transform="matrix(0.182, -0.983, 0.983, 0.182, 367.397, 79.665)"/><rect class="a" width="5.577" height="5.577" transform="matrix(0.182, -0.983, 0.983, 0.182, 418.428, 98.158)"/><rect class="a" width="5.577" height="5.577" transform="matrix(0.182, -0.983, 0.983, 0.182, 409.652, 96.565)"/><rect class="a" width="5.577" height="5.577" transform="matrix(0.182, -0.983, 0.983, 0.182, 400.892, 94.893)"/><rect class="a" width="5.577" height="5.577" transform="matrix(0.182, -0.983, 0.983, 0.182, 392.116, 93.299)"/><rect class="a" width="5.577" height="5.577" transform="matrix(0.182, -0.983, 0.983, 0.182, 383.355, 91.627)"/><rect class="a" width="5.577" height="5.577" transform="matrix(0.182, -0.983, 0.983, 0.182, 374.58, 90.034)"/><rect class="a" width="5.577" height="5.577" transform="matrix(0.182, -0.983, 0.983, 0.182, 365.804, 88.441)"/><rect class="a" width="5.577" height="5.577" transform="matrix(0.182, -0.983, 0.983, 0.182, 416.834, 106.934)"/><rect class="a" width="5.577" height="5.577" transform="matrix(0.182, -0.983, 0.983, 0.182, 408.059, 105.341)"/><rect class="a" width="5.577" height="5.577" transform="matrix(0.182, -0.983, 0.983, 0.182, 381.668, 100.467)"/><rect class="a" width="5.577" height="5.577" transform="matrix(0.182, -0.983, 0.983, 0.182, 372.907, 98.795)"/><rect class="a" width="5.577" height="5.577" transform="matrix(0.182, -0.983, 0.983, 0.182, 364.132, 97.201)"/><rect class="a" width="5.577" height="5.577" transform="matrix(0.182, -0.983, 0.983, 0.182, 362.539, 105.977)"/><rect class="a" width="5.577" height="5.577" transform="matrix(0.182, -0.983, 0.983, 0.182, 378.481, 118.018)"/><rect class="a" width="5.577" height="5.577" transform="matrix(0.182, -0.983, 0.983, 0.182, 369.721, 116.346)"/><rect class="a" width="5.577" height="5.577" transform="matrix(0.182, -0.983, 0.983, 0.182, 360.866, 114.737)"/><rect class="a" width="5.577" height="5.577" transform="matrix(0.182, -0.983, 0.983, 0.182, 359.272, 123.513)"/><rect class="a" width="5.577" height="5.577" transform="matrix(0.182, -0.983, 0.983, 0.182, 383.991, 137.148)"/><rect class="a" width="5.577" height="5.577" transform="matrix(0.182, -0.983, 0.983, 0.182, 375.216, 135.554)"/><rect class="a" width="5.577" height="5.577" transform="matrix(0.182, -0.983, 0.983, 0.182, 357.68, 132.289)"/><rect class="a" width="5.577" height="5.577" transform="matrix(0.182, -0.983, 0.983, 0.182, 382.384, 146.002)"/><rect class="a" width="5.577" height="5.577" transform="matrix(0.182, -0.983, 0.983, 0.182, 373.543, 144.315)"/><rect class="a" width="5.577" height="5.577" transform="matrix(0.182, -0.983, 0.983, 0.182, 364.768, 142.722)"/><rect class="a" width="5.577" height="5.577" transform="matrix(0.182, -0.983, 0.983, 0.182, 356.007, 141.049)"/><rect class="a" width="5.577" height="5.577" transform="matrix(0.182, -0.983, 0.983, 0.182, 438.594, 38.368)"/><rect class="a" width="5.577" height="5.577" transform="matrix(0.182, -0.983, 0.983, 0.182, 437, 47.143)"/><rect class="a" width="5.577" height="5.577" transform="matrix(0.182, -0.983, 0.983, 0.182, 435.328, 55.904)"/><rect class="a" width="5.577" height="5.577" transform="matrix(0.182, -0.983, 0.983, 0.182, 433.735, 64.679)"/><rect class="a" width="5.577" height="5.577" transform="matrix(0.182, -0.983, 0.983, 0.182, 432.062, 73.44)"/><rect class="a" width="5.577" height="5.577" transform="matrix(0.182, -0.983, 0.983, 0.182, 430.469, 82.216)"/><rect class="a" width="5.577" height="5.577" transform="matrix(0.182, -0.983, 0.983, 0.182, 428.876, 90.991)"/><rect class="a" width="5.577" height="5.577" transform="matrix(0.182, -0.983, 0.983, 0.182, 427.203, 99.752)"/><rect class="a" width="5.577" height="5.577" transform="matrix(0.182, -0.983, 0.983, 0.182, 425.595, 108.607)"/><rect class="a" width="5.577" height="5.577" transform="matrix(0.182, -0.983, 0.983, 0.182, 424.002, 117.382)"/><rect class="a" width="5.577" height="5.577" transform="matrix(0.182, -0.983, 0.983, 0.182, 445.776, 48.737)"/><rect class="a" width="5.577" height="5.577" transform="matrix(0.182, -0.983, 0.983, 0.182, 444.103, 57.498)"/><rect class="a" width="5.577" height="5.577" transform="matrix(0.182, -0.983, 0.983, 0.182, 442.51, 66.273)"/><rect class="a" width="5.577" height="5.577" transform="matrix(0.182, -0.983, 0.983, 0.182, 440.918, 75.048)"/><rect class="a" width="5.577" height="5.577" transform="matrix(0.182, -0.983, 0.983, 0.182, 439.23, 83.888)"/><rect class="a" width="5.577" height="5.577" transform="matrix(0.182, -0.983, 0.983, 0.182, 437.637, 92.664)"/><rect class="a" width="5.577" height="5.577" transform="matrix(0.182, -0.983, 0.983, 0.182, 435.964, 101.425)"/><rect class="a" width="5.577" height="5.577" transform="matrix(0.182, -0.983, 0.983, 0.182, 434.371, 110.2)"/><rect class="a" width="5.577" height="5.577" transform="matrix(0.182, -0.983, 0.983, 0.182, 432.778, 118.976)"/><rect class="a" width="5.577" height="5.577" transform="matrix(0.182, -0.983, 0.983, 0.182, 431.105, 127.736)"/><rect class="a" width="5.577" height="5.577" transform="matrix(0.182, -0.983, 0.983, 0.182, 452.864, 59.17)"/><rect class="a" width="5.577" height="5.577" transform="matrix(0.182, -0.983, 0.983, 0.182, 451.271, 67.945)"/><rect class="a" width="5.577" height="5.577" transform="matrix(0.182, -0.983, 0.983, 0.182, 449.679, 76.721)"/><rect class="a" width="5.577" height="5.577" transform="matrix(0.182, -0.983, 0.983, 0.182, 448.005, 85.482)"/><rect class="a" width="5.577" height="5.577" transform="matrix(0.182, -0.983, 0.983, 0.182, 446.413, 94.257)"/><rect class="a" width="5.577" height="5.577" transform="matrix(0.182, -0.983, 0.983, 0.182, 444.819, 103.033)"/><rect class="a" width="5.577" height="5.577" transform="matrix(0.182, -0.983, 0.983, 0.182, 461.718, 60.778)"/><rect class="a" width="5.577" height="5.577" transform="matrix(0.182, -0.983, 0.983, 0.182, 460.047, 69.538)"/><rect class="a" width="5.577" height="5.577" transform="matrix(0.182, -0.983, 0.983, 0.182, 458.453, 78.314)"/><rect class="a" width="5.577" height="5.577" transform="matrix(0.182, -0.983, 0.983, 0.182, 456.781, 87.075)"/><rect class="a" width="5.577" height="5.577" transform="matrix(0.182, -0.983, 0.983, 0.182, 455.187, 95.85)"/><rect class="a" width="5.577" height="5.577" transform="matrix(0.182, -0.983, 0.983, 0.182, 470.494, 62.371)"/><rect class="a" width="5.577" height="5.577" transform="matrix(0.182, -0.983, 0.983, 0.182, 468.822, 71.132)"/><rect class="a" width="5.577" height="5.577" transform="matrix(0.182, -0.983, 0.983, 0.182, 467.214, 79.987)"/><rect class="a" width="5.577" height="5.577" transform="matrix(0.182, -0.983, 0.983, 0.182, 465.621, 88.762)"/><rect class="a" width="5.577" height="5.577" transform="matrix(0.182, -0.983, 0.983, 0.182, 463.948, 97.523)"/><rect class="a" width="5.577" height="5.577" transform="matrix(0.182, -0.983, 0.983, 0.182, 479.255, 64.044)"/><rect class="a" width="5.577" height="5.577" transform="matrix(0.182, -0.983, 0.983, 0.182, 477.583, 72.804)"/><rect class="a" width="5.577" height="5.577" transform="matrix(0.182, -0.983, 0.983, 0.182, 475.99, 81.58)"/><rect class="a" width="5.577" height="5.577" transform="matrix(0.182, -0.983, 0.983, 0.182, 474.397, 90.355)"/><rect class="a" width="5.577" height="5.577" transform="matrix(0.182, -0.983, 0.983, 0.182, 489.624, 56.862)"/><rect class="a" width="5.577" height="5.577" transform="matrix(0.182, -0.983, 0.983, 0.182, 486.438, 74.412)"/><rect class="a" width="5.577" height="5.577" transform="matrix(0.182, -0.983, 0.983, 0.182, 484.765, 83.173)"/><rect class="a" width="5.577" height="5.577" transform="matrix(0.182, -0.983, 0.983, 0.182, 483.172, 91.949)"/><rect class="a" width="5.577" height="5.577" transform="matrix(0.182, -0.983, 0.983, 0.182, 493.526, 84.845)"/><rect class="a" width="5.577" height="5.577" transform="matrix(0.182, -0.983, 0.983, 0.182, 342.687, 311.104)"/><rect class="a" width="5.577" height="5.577" transform="matrix(0.182, -0.983, 0.983, 0.182, 333.912, 309.511)"/><rect class="a" width="5.577" height="5.577" transform="matrix(0.182, -0.983, 0.983, 0.182, 325.152, 307.838)"/><rect class="a" width="5.577" height="5.577" transform="matrix(0.182, -0.983, 0.983, 0.182, 341.095, 319.879)"/><rect class="a" width="5.577" height="5.577" transform="matrix(0.182, -0.983, 0.983, 0.182, 332.319, 318.286)"/><rect class="a" width="5.577" height="5.577" transform="matrix(0.182, -0.983, 0.983, 0.182, 323.544, 316.693)"/><rect class="a" width="5.577" height="5.577" transform="matrix(0.182, -0.983, 0.983, 0.182, 330.646, 327.047)"/><rect class="a" width="5.577" height="5.577" transform="matrix(0.182, -0.983, 0.983, 0.182, 321.871, 325.454)"/><rect class="a" width="5.577" height="5.577" transform="matrix(0.182, -0.983, 0.983, 0.182, 329.053, 335.823)"/><rect class="a" width="5.577" height="5.577" transform="matrix(0.182, -0.983, 0.983, 0.182, 320.277, 334.229)"/><rect class="a" width="5.577" height="5.577" transform="matrix(0.182, -0.983, 0.983, 0.182, 318.605, 342.99)"/><rect class="a" width="5.577" height="5.577" transform="matrix(0.182, -0.983, 0.983, 0.182, 493.526, 84.846)"/></g></svg>